<svg width="128" height="128" xmlns="http://www.w3.org/2000/svg">
    <path
        d="M121.718 73.272v9.953c3.957-7.584 6.199-16.05 6.199-24.995C127.917 26.079 99.273 0 63.958 0 28.644 0 0 26.079 0 58.23c0 .403.028.806.028 1.21l22.97-25.953h13.34l-19.76 27.187h6.42V53.77l13.728-19.477v49.361H22.998V73.272H2.158c5.951 20.284 23.608 36.208 45.998 41.399-1.44 3.3-5.618 11.263-12.565 12.674-8.607 1.764 23.358.428 46.163-13.178 17.519-4.611 31.938-15.849 39.77-30.513h-13.506V73.272H85.02V59.464l22.998-25.977h13.008l-19.429 27.187h6.421v-7.433l13.727-19.402v39.433h-.027zm-78.24 2.822a10.516 10.516 0 0 1-.996-4.535V44.548c0-1.613.332-3.124.996-4.535a11.66 11.66 0 0 1 2.713-3.68c1.134-1.032 2.49-1.864 4.04-2.468 1.55-.605 3.21-.908 4.982-.908h11.292c1.77 0 3.431.303 4.981.908 1.522.604 2.85 1.41 3.986 2.418l-12.26 16.303v-2.898a1.96 1.96 0 0 0-.665-1.512c-.443-.403-.996-.604-1.66-.604-.665 0-1.218.201-1.661.604a1.96 1.96 0 0 0-.664 1.512v9.071L44.364 77.606a10.556 10.556 0 0 1-.886-1.512zm35.73-4.535c0 1.613-.332 3.124-.997 4.535a11.66 11.66 0 0 1-2.712 3.68c-1.134 1.032-2.49 1.864-4.04 2.469-1.55.604-3.21.907-4.982.907H55.185c-1.77 0-3.431-.303-4.981-.907-1.55-.605-2.906-1.437-4.041-2.47a12.49 12.49 0 0 1-1.384-1.512l13.727-18.217v6.375c0 .605.222 1.109.665 1.512.442.403.996.604 1.66.604.664 0 1.218-.201 1.66-.604a1.96 1.96 0 0 0 .665-1.512V53.87L75.97 36.838c.913.932 1.66 1.99 2.214 3.175.664 1.41.996 2.922.996 4.535v27.011h.028z" />
</svg>
<svg t="1680082644248" class="icon" viewBox="0 0 1024 1024" version="1.1" xmlns="http://www.w3.org/2000/svg" p-id="988"
    width="200" height="200">
    <path
        d="M338.8 459.7c-2 1.6-5 2-7.5 0.9-2.5-1.3-4-3.7-4-6.4v-30.8c0-1.6 0.7-3.1 2-4l40.5-31.9-40.5-32c-1.2-1-2-2.5-2-4v-30.8c0-2.7 1.6-5.3 4-6.4 1-0.5 2-0.7 3.1-0.7 1.6 0 3.1 0.5 4.4 1.5l84.7 66.8c1.7 1.4 2.7 3.4 2.7 5.6 0 2.2-1 4.2-2.6 5.6l-84.8 66.6z m269.9-66.8c-1.7-1.4-2.7-3.4-2.7-5.6 0-2.2 1-4.2 2.7-5.5l84.7-66.8c2.1-1.6 5-2 7.5-0.9 2.5 1.3 4.1 3.7 4.1 6.4v30.9c0 1.6-0.7 3-2 4l-40.5 32 40.5 31.9c1.3 1 2 2.5 2 4v30.8c0 2.7-1.6 5.3-4 6.4-1 0.5-2.1 0.7-3.1 0.7-1.6 0-3.1-0.5-4.4-1.5l-84.8-66.8z m-3.9 185.7c-34.5 0-64.9 2.4-83.1 30.3-18.1-27.9-48.6-30.3-83.1-30.3-55.6 0-100.7 47.6-100.7 106.5 0 58.7 45.1 83.9 100.7 83.9h166.1c55.6 0 100.7-25.2 100.7-83.9 0.1-58.9-45-106.5-100.6-106.5z m0 160.4H438.7c-39.9 0-72.4-11.9-72.4-54 0-42.2 32.5-76.5 72.4-76.5 37.1 0 51.1 4.1 59.7 17.3 5.3 8.1 14 13 23.3 13s18.1-4.9 23.3-13c8.6-13.3 22.5-17.3 59.7-17.3 39.9 0 72.3 34.3 72.3 76.5 0.2 42.2-32.2 54-72.2 54z m2.1-41.3c0 15-36.9 27.2-82.5 27.2s-82.5-12.2-82.5-27.2 37-27.2 82.5-27.2 82.5 12.2 82.5 27.2zM803.8 962H220.2C133 962 62 891 62 803.8V220.2C62 133 133 62 220.2 62h583.5C891 62 962 133 962 220.2v583.5C962 891 891 962 803.8 962zM220.2 136.5c-46.2 0-83.8 37.5-83.8 83.7v583.6c0 46.2 37.6 83.8 83.8 83.8h583.5c46.2 0 83.8-37.6 83.8-83.8V220.2c0-46.2-37.6-83.8-83.8-83.8H220.2v0.1z m0 0"
        p-id="989"></path>
</svg>