<svg t="1738722098612" class="icon" viewBox="0 0 1024 1024" version="1.1" xmlns="http://www.w3.org/2000/svg" p-id="1534"
    width="200" height="200">
    <path
        d="M89.6 1008.64c-39.936 0-72.192-32.256-72.192-72.192V84.48c0-39.936 32.256-72.192 72.192-72.192h553.472c19.456 0 37.376 7.68 51.2 20.992L993.28 332.288c13.824 13.824 20.992 31.744 20.992 51.2V936.96c0 39.936-32.256 72.192-72.192 72.192H89.6zM812.032 395.776c19.456 0 34.816 15.872 34.816 34.816v507.392h96.768V382.464l-300.032-300.032h-93.184v168.96c0 19.456-15.872 34.816-34.816 34.816H219.136C199.68 286.208 184.32 270.336 184.32 250.88V81.92H87.552v856.064H184.32v-506.88c0-19.456 15.872-34.816 34.816-34.816h592.896z m-557.568 542.72h522.752V465.92H254.464v472.576z m0-722.432h226.304V82.432H254.464v133.632z"
        p-id="1535"></path>
</svg>