<svg t="1658143392453" class="icon" viewBox="0 0 1024 1024" version="1.1" xmlns="http://www.w3.org/2000/svg" p-id="5677" width="81" height="81"><path d="M512 328c-100.8 0-184 83.2-184 184S411.2 696 512 696 696 612.8 696 512 612.8 328 512 328z m0 320c-75.2 0-136-60.8-136-136s60.8-136 136-136 136 60.8 136 136-60.8 136-136 136z" p-id="5678"></path><path d="M857.6 572.8c-20.8-12.8-33.6-35.2-33.6-60.8s12.8-46.4 33.6-60.8c14.4-9.6 20.8-27.2 16-44.8-8-27.2-19.2-52.8-32-76.8-8-14.4-25.6-24-43.2-19.2-24 4.8-48-1.6-65.6-19.2-17.6-17.6-24-41.6-19.2-65.6 3.2-16-4.8-33.6-19.2-43.2-24-14.4-51.2-24-76.8-32-16-4.8-35.2 1.6-44.8 16-12.8 20.8-35.2 33.6-60.8 33.6s-46.4-12.8-60.8-33.6c-9.6-14.4-27.2-20.8-44.8-16-27.2 8-52.8 19.2-76.8 32-14.4 8-24 25.6-19.2 43.2 4.8 24-1.6 49.6-19.2 65.6-17.6 17.6-41.6 24-65.6 19.2-16-3.2-33.6 4.8-43.2 19.2-14.4 24-24 51.2-32 76.8-4.8 16 1.6 35.2 16 44.8 20.8 12.8 33.6 35.2 33.6 60.8s-12.8 46.4-33.6 60.8c-14.4 9.6-20.8 27.2-16 44.8 8 27.2 19.2 52.8 32 76.8 8 14.4 25.6 22.4 43.2 19.2 24-4.8 49.6 1.6 65.6 19.2 17.6 17.6 24 41.6 19.2 65.6-3.2 16 4.8 33.6 19.2 43.2 24 14.4 51.2 24 76.8 32 16 4.8 35.2-1.6 44.8-16 12.8-20.8 35.2-33.6 60.8-33.6s46.4 12.8 60.8 33.6c8 11.2 20.8 17.6 33.6 17.6 3.2 0 8 0 11.2-1.6 27.2-8 52.8-19.2 76.8-32 14.4-8 24-25.6 19.2-43.2-4.8-24 1.6-49.6 19.2-65.6 17.6-17.6 41.6-24 65.6-19.2 16 3.2 33.6-4.8 43.2-19.2 14.4-24 24-51.2 32-76.8 4.8-17.6-1.6-35.2-16-44.8z m-56 92.8c-38.4-6.4-76.8 6.4-104 33.6-27.2 27.2-40 65.6-33.6 104-17.6 9.6-36.8 17.6-56 24-22.4-30.4-57.6-49.6-97.6-49.6-38.4 0-73.6 17.6-97.6 49.6-19.2-6.4-38.4-14.4-56-24 6.4-38.4-6.4-76.8-33.6-104-27.2-27.2-65.6-40-104-33.6-9.6-17.6-17.6-36.8-24-56 30.4-22.4 49.6-57.6 49.6-97.6 0-38.4-17.6-73.6-49.6-97.6 6.4-19.2 14.4-38.4 24-56 38.4 6.4 76.8-6.4 104-33.6 27.2-27.2 40-65.6 33.6-104 17.6-9.6 36.8-17.6 56-24 22.4 30.4 57.6 49.6 97.6 49.6 38.4 0 73.6-17.6 97.6-49.6 19.2 6.4 38.4 14.4 56 24-6.4 38.4 6.4 76.8 33.6 104 27.2 27.2 65.6 40 104 33.6 9.6 17.6 17.6 36.8 24 56-30.4 22.4-49.6 57.6-49.6 97.6 0 38.4 17.6 73.6 49.6 97.6-6.4 19.2-14.4 38.4-24 56z" p-id="5679"></path></svg>